<svg xmlns="http://www.w3.org/2000/svg" height="24" viewBox="0 -960 960 960" width="24"><path d="M140-100v-356.923l62.231-181.923q5.692-19.077 21.978-30.116Q240.494-680 259.001-680q5.922 0 12.384 1.5 6.461 1.5 12.154 3.961L454.154-600H540v40h-96.154l-124.154-53.923L260-433.077V-100H140Zm240-180v-40h440v40H380Zm367.873-80q-19.796 0-33.834-13.857Q700-387.715 700-407.511q0-19.797 13.858-33.835 13.857-14.039 33.654-14.039 19.796 0 33.834 13.858 14.039 13.857 14.039 33.654 0 19.796-13.858 33.835Q767.67-360 747.873-360Zm-223.258 0q-26.654 0-45.634-18.981Q460-397.961 460-424.615V-480h-80v-40h87.692q13.731 0 23.02 9.288 9.288 9.289 9.288 23.02V-440h120v-80h40v95.385q0 26.654-18.981 45.634Q622.039-360 595.385-360h-70.77ZM312.308-744.615q-27.923 0-47.808-19.885t-19.885-47.808q0-27.923 19.885-47.808Q284.385-880 312.308-880t47.807 19.884Q380-840.231 380-812.308T360.115-764.5q-19.884 19.885-47.807 19.885Z"/></svg>