<svg xmlns="http://www.w3.org/2000/svg" height="24" viewBox="0 -960 960 960" width="24"><path d="M624.384-627.692q2.693-34.077-4.346-56.039-7.038-21.961-29.5-50.423-27.154-33.846-36.5-64.308-9.346-30.461-6.192-69.231h39.846q-3.384 36.385 5 58.847 8.385 22.461 33.693 56.769 22.923 31.154 31.692 59.884 8.769 28.731 5.615 64.501h-39.308Zm135.616 0q2.692-34.077-4.462-56.039-7.153-21.961-29.615-50.423-27.154-33.846-36.385-64.308-9.23-30.461-6.076-69.231h39.615q-3.384 36.385 5 58.847 8.385 22.461 33.692 56.769 22.924 31.154 31.693 59.884 8.769 28.731 5.615 64.501H760ZM260-120q-58.308 0-99.154-36.231Q120-192.461 120-250.769v-197.539q0-25.615 12.192-47.884 12.192-22.27 33.577-36.193l324.615-210.154 4.616 4.616q14.615 14.615 16.577 34.808 1.961 20.192-8.423 37.269l-68.077 113.538H740q8.539 0 14.269 5.731Q760-540.846 760-532.308q0 8.539-5.731 14.27-5.73 5.73-14.269 5.73H364.154l99.307-165.538L188-499.231q-12.846 8.077-20.423 21.693Q160-463.923 160-448.308v197.539q0 41.461 29.269 66.115Q218.538-160 260-160h440q8.539 0 14.269 5.731Q720-148.538 720-140q0 8.539-5.731 14.269Q708.539-120 700-120H260Zm260-261.538v-40.001h300q8.539 0 14.269 5.731 5.731 5.731 5.731 14.27 0 8.538-5.731 14.269-5.73 5.731-14.269 5.731H520Zm0 130.769v-40h260q8.539 0 14.269 5.731 5.731 5.73 5.731 14.269 0 8.538-5.731 14.269-5.73 5.731-14.269 5.731H520ZM340-381.538Z"/></svg>