<svg xmlns="http://www.w3.org/2000/svg" height="24" viewBox="0 -960 960 960" width="24" fill="#007BFF"><path d="M202.87-111.869q-37.783 0-64.392-26.609-26.609-26.609-26.609-64.392v-554.26q0-37.783 26.609-64.392 26.609-26.609 64.392-26.609h356.76l-91 91.001H202.87v554.26h554.26v-266.282l91.001-91v357.282q0 37.783-26.609 64.392-26.609 26.609-64.392 26.609H202.87ZM480-480ZM356.174-356.174v-175.5l363.413-363.174q13.674-13.674 30.587-20.391 16.913-6.718 34.065-6.718 17.913 0 34.446 6.718 16.533 6.717 30.206 20.391l45.957 46.717q12.913 13.674 19.63 30.231 6.718 16.557 6.718 33.685 0 17.128-6.301 33.742-6.301 16.615-20.047 30.364L531.674-356.174h-175.5Zm481.717-428.065L785-836.891l52.891 52.652Zm-395.5 341.848h52.652l229.848-229.848-26.238-26.326-27.175-26.326-229.087 228.848v53.652Zm256.262-256.174-27.175-26.326 27.175 26.326 26.238 26.326-26.238-26.326Z"/></svg>