<svg width="251" height="40" viewBox="0 0 251 40" fill="none" xmlns="http://www.w3.org/2000/svg">
<rect x="0.5" y="0.5" width="250" height="39" rx="5.5" fill="white" stroke="#F0F0F0"/>
<path d="M86.644 15.592H93.604V16.852H86.644V15.592ZM85.492 20.32H95.548V21.616H85.492V20.32ZM89.656 21.232H91.264V26.068H89.656V21.232ZM92.788 15.592H94.36V16.576C94.36 16.976 94.352 17.4 94.336 17.848C94.328 18.296 94.296 18.788 94.24 19.324C94.184 19.852 94.08 20.444 93.928 21.1L92.368 20.908C92.576 19.988 92.696 19.184 92.728 18.496C92.768 17.8 92.788 17.16 92.788 16.576V15.592ZM97.7671 15.388H104.799V16.648H97.7671V15.388ZM96.5311 18.856H106.599V20.128H96.5311V18.856ZM103.839 15.388H105.411V16.144C105.411 16.544 105.399 17 105.375 17.512C105.351 18.016 105.267 18.592 105.123 19.24L103.551 19.096C103.695 18.464 103.779 17.912 103.803 17.44C103.827 16.968 103.839 16.536 103.839 16.144V15.388ZM97.6471 20.884H105.387V24.004H99.2551V25.132H97.6591V22.828H103.791V22.108H97.6471V20.884ZM97.6591 24.748H105.675V25.984H97.6591V24.748ZM107.57 23.548H117.638V24.844H107.57V23.548ZM111.794 21.436H113.378V24.064H111.794V21.436ZM108.71 15.664H116.498V19.372H110.306V21.232H108.722V18.124H114.914V16.936H108.71V15.664ZM108.722 20.608H116.75V21.88H108.722V20.608ZM125.671 17.884H127.915V19.144H125.671V17.884ZM125.611 20.656H127.879V21.928H125.611V20.656ZM129.427 14.944H130.951V26.056H129.427V14.944ZM127.147 15.184H128.635V25.564H127.147V15.184ZM124.639 16.252H126.163C126.163 17.308 126.039 18.292 125.791 19.204C125.551 20.108 125.135 20.94 124.543 21.7C123.959 22.46 123.151 23.144 122.119 23.752L121.219 22.636C122.059 22.132 122.727 21.584 123.223 20.992C123.727 20.392 124.087 19.732 124.303 19.012C124.527 18.284 124.639 17.472 124.639 16.576V16.252ZM121.855 16.252H125.167V17.536H121.855V16.252ZM132.414 20.344H142.482V21.604H132.414V20.344ZM136.626 18.904H138.222V20.896H136.626V18.904ZM136.614 15.148H137.982V15.484C137.982 15.892 137.918 16.284 137.79 16.66C137.662 17.028 137.474 17.368 137.226 17.68C136.978 17.992 136.674 18.276 136.314 18.532C135.954 18.78 135.538 18.992 135.066 19.168C134.602 19.344 134.082 19.472 133.506 19.552L132.918 18.292C133.422 18.236 133.87 18.144 134.262 18.016C134.662 17.88 135.006 17.72 135.294 17.536C135.59 17.352 135.834 17.148 136.026 16.924C136.226 16.7 136.374 16.468 136.47 16.228C136.566 15.98 136.614 15.732 136.614 15.484V15.148ZM136.878 15.148H138.234V15.484C138.234 15.74 138.282 15.992 138.378 16.24C138.474 16.488 138.618 16.724 138.81 16.948C139.002 17.164 139.242 17.364 139.53 17.548C139.826 17.732 140.174 17.888 140.574 18.016C140.974 18.144 141.426 18.236 141.93 18.292L141.342 19.552C140.774 19.472 140.254 19.344 139.782 19.168C139.318 18.992 138.902 18.784 138.534 18.544C138.174 18.296 137.87 18.016 137.622 17.704C137.374 17.384 137.186 17.04 137.058 16.672C136.938 16.304 136.878 15.908 136.878 15.484V15.148ZM133.53 22.384H141.258V26.068H139.662V23.644H133.53V22.384ZM150.581 14.956H152.177V26.068H150.581V14.956ZM151.817 19.288H153.773V20.608H151.817V19.288ZM143.405 16.588H149.885V17.86H143.405V16.588ZM146.669 18.496C147.205 18.496 147.685 18.612 148.109 18.844C148.533 19.068 148.865 19.376 149.105 19.768C149.353 20.16 149.477 20.616 149.477 21.136C149.477 21.656 149.353 22.116 149.105 22.516C148.865 22.908 148.533 23.22 148.109 23.452C147.693 23.676 147.213 23.788 146.669 23.788C146.133 23.788 145.649 23.676 145.217 23.452C144.793 23.22 144.457 22.908 144.209 22.516C143.969 22.116 143.849 21.656 143.849 21.136C143.849 20.616 143.969 20.16 144.209 19.768C144.457 19.376 144.793 19.068 145.217 18.844C145.649 18.612 146.133 18.496 146.669 18.496ZM146.669 19.792C146.413 19.792 146.189 19.844 145.997 19.948C145.805 20.052 145.653 20.204 145.541 20.404C145.429 20.604 145.373 20.848 145.373 21.136C145.373 21.416 145.429 21.66 145.541 21.868C145.653 22.068 145.805 22.224 145.997 22.336C146.189 22.44 146.413 22.492 146.669 22.492C146.917 22.492 147.137 22.44 147.329 22.336C147.521 22.224 147.673 22.068 147.785 21.868C147.897 21.66 147.953 21.416 147.953 21.136C147.953 20.848 147.897 20.604 147.785 20.404C147.673 20.204 147.521 20.052 147.329 19.948C147.137 19.844 146.917 19.792 146.669 19.792ZM145.853 15.136H147.461V17.08H145.853V15.136ZM162.16 14.944H163.756V26.056H162.16V14.944ZM158.884 16.096H160.456C160.456 16.944 160.372 17.756 160.204 18.532C160.044 19.3 159.772 20.024 159.388 20.704C159.012 21.384 158.492 22.016 157.828 22.6C157.172 23.176 156.352 23.704 155.368 24.184L154.528 22.924C155.6 22.404 156.452 21.832 157.084 21.208C157.724 20.576 158.184 19.864 158.464 19.072C158.744 18.272 158.884 17.376 158.884 16.384V16.096ZM155.128 16.096H159.628V17.368H155.128V16.096Z" fill="black"/>
<path fill-rule="evenodd" clip-rule="evenodd" d="M34.9989 20.7161C34.9989 20.0422 34.9368 19.3952 34.8226 18.7732H25.6934V22.4479H30.9105C30.6858 23.6355 30.0028 24.6414 28.9763 25.3153V27.6986H32.1095C33.9423 26.0447 34.9998 23.6095 34.9998 20.7161H34.9989Z" fill="#4285F4"/>
<path fill-rule="evenodd" clip-rule="evenodd" d="M25.6934 30C28.3106 30 30.505 29.1489 32.1086 27.6982L28.9754 25.3149C28.107 25.885 26.9974 26.2215 25.6925 26.2215C23.1675 26.2215 21.0306 24.5506 20.2681 22.3052H17.0308V24.7663C18.6261 27.8709 21.9036 30 25.6934 30Z" fill="#34A853"/>
<path fill-rule="evenodd" clip-rule="evenodd" d="M20.2692 22.3052C20.0756 21.7351 19.9651 21.1265 19.9651 20.5C19.9651 19.8736 20.0756 19.265 20.2692 18.6949V16.2338H17.031C16.3744 17.5162 16 18.967 16 20.5C16 22.0331 16.3744 23.4838 17.031 24.7663L20.2692 22.3052Z" fill="#FBBC05"/>
<path fill-rule="evenodd" clip-rule="evenodd" d="M25.6934 14.7785C27.1162 14.7785 28.3946 15.2582 29.3992 16.1988L32.1799 13.4737C30.5005 11.9415 28.3061 11 25.6934 11C21.9036 11 18.6261 13.1291 17.0308 16.2337L20.269 18.6948C21.0315 16.4494 23.1684 14.7785 25.6934 14.7785Z" fill="#EA4335"/>
</svg>
