<svg width="249" height="38" viewBox="0 0 249 38" fill="none" xmlns="http://www.w3.org/2000/svg">
<rect width="249" height="38" rx="5" fill="#FEE500"/>
<path d="M82.692 15.012H84.24C84.24 15.876 84.172 16.7 84.036 17.484C83.908 18.268 83.668 19.012 83.316 19.716C82.964 20.42 82.464 21.08 81.816 21.696C81.168 22.312 80.324 22.884 79.284 23.412L78.432 22.188C79.296 21.756 80.004 21.296 80.556 20.808C81.116 20.312 81.548 19.784 81.852 19.224C82.164 18.656 82.38 18.04 82.5 17.376C82.628 16.712 82.692 15.992 82.692 15.216V15.012ZM79.128 15.012H83.628V16.284H79.128V15.012ZM82.728 17.736V18.96L78.744 19.344L78.54 17.988L82.728 17.736ZM85.584 13.932H87.192V25.044H85.584V13.932ZM86.784 18.192H88.74V19.5H86.784V18.192ZM93.7311 15.012H95.2791C95.2791 15.876 95.2111 16.7 95.0751 17.484C94.9471 18.268 94.7071 19.012 94.3551 19.716C94.0031 20.42 93.5031 21.08 92.8551 21.696C92.2071 22.312 91.3631 22.884 90.3231 23.412L89.4711 22.188C90.3351 21.756 91.0431 21.296 91.5951 20.808C92.1551 20.312 92.5871 19.784 92.8911 19.224C93.2031 18.656 93.4191 18.04 93.5391 17.376C93.6671 16.712 93.7311 15.992 93.7311 15.216V15.012ZM90.1671 15.012H94.6671V16.284H90.1671V15.012ZM93.7671 17.736V18.96L89.7831 19.344L89.5791 17.988L93.7671 17.736ZM96.6231 13.932H98.2311V25.044H96.6231V13.932ZM97.8231 18.192H99.7791V19.5H97.8231V18.192ZM104.794 20.196H106.378V22.728H104.794V20.196ZM105.586 14.52C106.378 14.52 107.086 14.648 107.71 14.904C108.342 15.152 108.838 15.504 109.198 15.96C109.558 16.416 109.738 16.956 109.738 17.58C109.738 18.196 109.558 18.736 109.198 19.2C108.838 19.664 108.342 20.024 107.71 20.28C107.086 20.528 106.378 20.652 105.586 20.652C104.802 20.652 104.094 20.528 103.462 20.28C102.838 20.024 102.342 19.664 101.974 19.2C101.614 18.736 101.434 18.196 101.434 17.58C101.434 16.956 101.614 16.416 101.974 15.96C102.342 15.504 102.838 15.152 103.462 14.904C104.094 14.648 104.802 14.52 105.586 14.52ZM105.586 15.78C105.082 15.78 104.634 15.852 104.242 15.996C103.858 16.14 103.554 16.344 103.33 16.608C103.114 16.872 103.006 17.196 103.006 17.58C103.006 17.956 103.114 18.28 103.33 18.552C103.554 18.816 103.858 19.02 104.242 19.164C104.634 19.308 105.082 19.38 105.586 19.38C106.098 19.38 106.546 19.308 106.93 19.164C107.322 19.02 107.626 18.816 107.842 18.552C108.058 18.28 108.166 17.956 108.166 17.58C108.166 17.196 108.058 16.872 107.842 16.608C107.626 16.344 107.322 16.14 106.93 15.996C106.546 15.852 106.098 15.78 105.586 15.78ZM100.57 22.476H110.638V23.772H100.57V22.476ZM111.609 22.548H121.677V23.844H111.609V22.548ZM115.833 20.436H117.417V23.064H115.833V20.436ZM112.749 14.664H120.537V18.372H114.345V20.232H112.761V17.124H118.953V15.936H112.749V14.664ZM112.761 19.608H120.789V20.88H112.761V19.608ZM129.71 16.884H131.954V18.144H129.71V16.884ZM129.65 19.656H131.918V20.928H129.65V19.656ZM133.466 13.944H134.99V25.056H133.466V13.944ZM131.186 14.184H132.674V24.564H131.186V14.184ZM128.678 15.252H130.202C130.202 16.308 130.078 17.292 129.83 18.204C129.59 19.108 129.174 19.94 128.582 20.7C127.998 21.46 127.19 22.144 126.158 22.752L125.258 21.636C126.098 21.132 126.766 20.584 127.262 19.992C127.766 19.392 128.126 18.732 128.342 18.012C128.566 17.284 128.678 16.472 128.678 15.576V15.252ZM125.894 15.252H129.206V16.536H125.894V15.252ZM136.453 19.344H146.521V20.604H136.453V19.344ZM140.665 17.904H142.261V19.896H140.665V17.904ZM140.653 14.148H142.021V14.484C142.021 14.892 141.957 15.284 141.829 15.66C141.701 16.028 141.513 16.368 141.265 16.68C141.017 16.992 140.713 17.276 140.353 17.532C139.993 17.78 139.577 17.992 139.105 18.168C138.641 18.344 138.121 18.472 137.545 18.552L136.957 17.292C137.461 17.236 137.909 17.144 138.301 17.016C138.701 16.88 139.045 16.72 139.333 16.536C139.629 16.352 139.873 16.148 140.065 15.924C140.265 15.7 140.413 15.468 140.509 15.228C140.605 14.98 140.653 14.732 140.653 14.484V14.148ZM140.917 14.148H142.273V14.484C142.273 14.74 142.321 14.992 142.417 15.24C142.513 15.488 142.657 15.724 142.849 15.948C143.041 16.164 143.281 16.364 143.569 16.548C143.865 16.732 144.213 16.888 144.613 17.016C145.013 17.144 145.465 17.236 145.969 17.292L145.381 18.552C144.813 18.472 144.293 18.344 143.821 18.168C143.357 17.992 142.941 17.784 142.573 17.544C142.213 17.296 141.909 17.016 141.661 16.704C141.413 16.384 141.225 16.04 141.097 15.672C140.977 15.304 140.917 14.908 140.917 14.484V14.148ZM137.569 21.384H145.297V25.068H143.701V22.644H137.569V21.384ZM154.62 13.956H156.216V25.068H154.62V13.956ZM155.856 18.288H157.812V19.608H155.856V18.288ZM147.444 15.588H153.924V16.86H147.444V15.588ZM150.708 17.496C151.244 17.496 151.724 17.612 152.148 17.844C152.572 18.068 152.904 18.376 153.144 18.768C153.392 19.16 153.516 19.616 153.516 20.136C153.516 20.656 153.392 21.116 153.144 21.516C152.904 21.908 152.572 22.22 152.148 22.452C151.732 22.676 151.252 22.788 150.708 22.788C150.172 22.788 149.688 22.676 149.256 22.452C148.832 22.22 148.496 21.908 148.248 21.516C148.008 21.116 147.888 20.656 147.888 20.136C147.888 19.616 148.008 19.16 148.248 18.768C148.496 18.376 148.832 18.068 149.256 17.844C149.688 17.612 150.172 17.496 150.708 17.496ZM150.708 18.792C150.452 18.792 150.228 18.844 150.036 18.948C149.844 19.052 149.692 19.204 149.58 19.404C149.468 19.604 149.412 19.848 149.412 20.136C149.412 20.416 149.468 20.66 149.58 20.868C149.692 21.068 149.844 21.224 150.036 21.336C150.228 21.44 150.452 21.492 150.708 21.492C150.956 21.492 151.176 21.44 151.368 21.336C151.56 21.224 151.712 21.068 151.824 20.868C151.936 20.66 151.992 20.416 151.992 20.136C151.992 19.848 151.936 19.604 151.824 19.404C151.712 19.204 151.56 19.052 151.368 18.948C151.176 18.844 150.956 18.792 150.708 18.792ZM149.892 14.136H151.5V16.08H149.892V14.136ZM166.199 13.944H167.795V25.056H166.199V13.944ZM162.923 15.096H164.495C164.495 15.944 164.411 16.756 164.243 17.532C164.083 18.3 163.811 19.024 163.427 19.704C163.051 20.384 162.531 21.016 161.867 21.6C161.211 22.176 160.391 22.704 159.407 23.184L158.567 21.924C159.639 21.404 160.491 20.832 161.123 20.208C161.763 19.576 162.223 18.864 162.503 18.072C162.783 17.272 162.923 16.376 162.923 15.384V15.096ZM159.167 15.096H163.667V16.368H159.167V15.096Z" fill="black"/>
<path d="M24.4138 10C19.2237 10 15 13.5145 15 17.8323C15 20.4446 16.5507 22.8685 19.1534 24.3289L18.2485 28.6844C18.2265 28.788 18.2661 28.8964 18.3495 28.9552C18.3913 28.9859 18.4374 29 18.4857 29C18.534 29 18.5802 28.9859 18.6219 28.9552L23.1882 25.5986C23.6033 25.6433 24.0163 25.6669 24.416 25.6669C29.6083 25.6669 33.8298 22.1524 33.8298 17.8346C33.8298 13.5169 29.6061 10 24.4138 10Z" fill="black"/>
</svg>
