<svg xmlns="http://www.w3.org/2000/svg" height="24" viewBox="0 -960 960 960" width="24"><path d="M637.817-646.923q-20.663 0-35.394-14.607-14.731-14.606-14.731-35.269 0-20.663 14.607-35.394 14.606-14.73 35.269-14.73 20.663 0 35.394 14.606 14.73 14.607 14.73 35.27 0 20.662-14.606 35.393-14.607 14.731-35.269 14.731ZM800.769-640q-25.307 0-42.653-17.346-17.347-17.346-17.347-42.654 0-25.308 17.347-42.654Q775.462-760 800.769-760q25.308 0 42.654 17.346Q860.77-725.308 860.77-700q0 25.308-17.347 42.654Q826.077-640 800.769-640ZM700.091-790.769q-16.63 0-28.36-11.641Q660-814.05 660-830.679q0-16.629 11.64-28.36 11.641-11.731 28.269-11.731 16.63 0 28.36 11.641Q740-847.489 740-830.86q0 16.629-11.64 28.36-11.641 11.731-28.269 11.731ZM260-120q-58.308 0-99.154-36.231Q120-192.461 120-250.769v-197.539q0-25.806 12.066-47.865 12.067-22.06 33.703-36.212l324.615-210.154 4.616 4.616q14.615 14.615 16.577 34.808 1.961 20.192-8.423 37.269l-68.077 113.538H740q8.5 0 14.25 5.758t5.75 14.269q0 8.512-5.75 14.243-5.75 5.73-14.25 5.73H364.154l99.307-165.538L188-499.231q-12.846 8.077-20.423 21.693Q160-463.923 160-448.308v197.539q0 41.461 29.375 66.115Q218.75-160 260-160h440q8.5 0 14.25 5.758t5.75 14.269q0 8.512-5.75 14.242Q708.5-120 700-120H260Zm260-261.538v-40.001h300q8.5 0 14.25 5.758t5.75 14.27q0 8.511-5.75 14.242-5.75 5.731-14.25 5.731H520Zm0 130.769v-40h260q8.5 0 14.25 5.758 5.75 5.757 5.75 14.269 0 8.511-5.75 14.242-5.75 5.731-14.25 5.731H520ZM340-381.538Z"/></svg>