<svg xmlns="http://www.w3.org/2000/svg" height="24" viewBox="0 -960 960 960" width="24"><path d="M246.154-100v-280h-60v-220q0-25.308 17.346-42.654Q220.846-660 246.154-660h107.692q25.308 0 42.654 17.346 17.346 17.346 17.346 42.654v220h-60v280H246.154ZM300-701.539q-28.385 0-48.039-19.653-19.653-19.654-19.653-48.039t19.653-48.038q19.654-19.654 48.039-19.654t48.039 19.654q19.653 19.653 19.653 48.038 0 28.385-19.653 48.039-19.654 19.653-48.039 19.653Zm320 601.54V-320h-96.923l80.461-299.846q5.693-19.077 21.039-29.616Q639.923-660 660-660t35.423 10.538q15.346 10.539 21.039 29.616L796.923-320H700v220h-80Zm40-601.54q-28.385 0-48.039-19.653-19.653-19.654-19.653-48.039t19.653-48.038q19.654-19.654 48.039-19.654t48.039 19.654q19.653 19.653 19.653 48.038 0 28.385-19.653 48.039-19.654 19.653-48.039 19.653Z" stroke="#000" stroke-width="35" fill="none" /></svg>